<?xml version="1.0" encoding="UTF-8" standalone="no"?>
<!-- Created with Inkscape (http://www.inkscape.org/) -->

<svg
   xmlns:dc="http://purl.org/dc/elements/1.1/"
   xmlns:cc="http://creativecommons.org/ns#"
   xmlns:rdf="http://www.w3.org/1999/02/22-rdf-syntax-ns#"
   xmlns:svg="http://www.w3.org/2000/svg"
   xmlns="http://www.w3.org/2000/svg"
   xmlns:sodipodi="http://sodipodi.sourceforge.net/DTD/sodipodi-0.dtd"
   xmlns:inkscape="http://www.inkscape.org/namespaces/inkscape"
   width="191"
   height="32"
   viewBox="0 0 50.535437 8.4666669"
   version="1.1"
   id="svg8"
   inkscape:version="0.92.4 (5da689c313, 2019-01-14)"
   sodipodi:docname="kyan_header.svg">
  <defs
     id="defs2" />
  <sodipodi:namedview
     id="base"
     pagecolor="#ffffff"
     bordercolor="#666666"
     borderopacity="1.0"
     inkscape:pageopacity="0.0"
     inkscape:pageshadow="2"
     inkscape:zoom="1.979899"
     inkscape:cx="144.76366"
     inkscape:cy="-14.500207"
     inkscape:document-units="mm"
     inkscape:current-layer="layer1"
     showgrid="false"
     units="px"
     inkscape:lockguides="false"
     showguides="false"
     inkscape:window-width="1920"
     inkscape:window-height="1017"
     inkscape:window-x="-8"
     inkscape:window-y="-8"
     inkscape:window-maximized="1" />
  <metadata
     id="metadata5">
    <rdf:RDF>
      <cc:Work
         rdf:about="">
        <dc:format>image/svg+xml</dc:format>
        <dc:type
           rdf:resource="http://purl.org/dc/dcmitype/StillImage" />
        <dc:title></dc:title>
      </cc:Work>
    </rdf:RDF>
  </metadata>
  <g
     inkscape:label="Layer 1"
     inkscape:groupmode="layer"
     id="layer1"
     transform="translate(0,-288.53331)">
    <g
       style="fill:#00ffff;fill-opacity:1;stroke:#000000;stroke-opacity:0"
       transform="matrix(0.02052525,0,0,0.02017058,0.20862486,287.38794)"
       id="g991">
      <path
         inkscape:connector-curvature="0"
         d="m 37.148438,10.310547 a 11.713852,12.191991 0 0 0 -0.416016,0.01172 h -0.722656 v 0.816406 c 0.315233,-5.38e-4 0.630047,-0.0013 0.945312,-0.0039 0.320981,0.0068 0.675232,-0.0087 0.976563,0.09766 0.268575,0.126816 0.490289,0.377306 0.693359,0.585937 2.118477,2.290857 4.302753,4.519101 6.419922,6.808594 C 38.057574,25.958591 31.071334,33.293756 24.083984,40.630859 17.084409,33.296472 10.090863,25.954387 3.1035156,18.605469 c 2.0935841,-2.174951 4.1518426,-4.374873 6.2480469,-6.556641 0.3825575,-0.3709 0.7170585,-0.888231 1.3105465,-0.86914 1.102481,-0.01508 2.20946,-0.0055 3.316407,-0.0039 v -0.857422 h -0.677735 v 0.0039 h -1.853515 c -0.478197,0.0041 -0.975001,-0.03045 -1.441407,0.05273 -0.3039464,0.06136 -0.5533842,0.31149 -0.7656246,0.521484 C 7.2252577,13.01416 5.2160761,15.125314 3.2128906,17.253902 2.7923393,17.692979 2.3753489,18.1916 1.8945312,18.5625 v 0.05469 c 1.1083681,1.082702 2.1424437,2.240408 3.2246094,3.347656 6.3218014,6.64257 12.6494664,13.273638 18.9843754,19.892578 7.003944,-7.337105 14.00371,-14.67802 20.998046,-22.021484 0.393041,-0.404991 0.752585,-0.812694 1.179688,-1.183594 v -0.06445 c -0.396969,-0.353175 -0.751042,-0.756494 -1.111328,-1.146485 -2.096205,-2.207676 -4.204647,-4.407778 -6.289063,-6.625 -0.195208,-0.192268 -0.424041,-0.421209 -0.707031,-0.464844 a 11.713852,12.191991 0 0 0 -0.941406,-0.04101 11.713852,12.191991 0 0 0 -0.08398,0 z"
         transform="matrix(10.955263,0,0,11.147895,-4.7314113,-15.458223)"
         style="opacity:1;fill:#00ffff;fill-opacity:1;stroke:#00ffff;stroke-width:0.81;stroke-miterlimit:4;stroke-dasharray:none;stroke-opacity:1"
         id="path8" />
      <path
         inkscape:connector-curvature="0"
         d="m 12.884766,14.980469 c -0.655423,0.007 -1.318224,0.0669 -1.892578,0.40039 -0.522143,0.295819 -0.903464,0.835291 -1.304688,1.273438 -0.6128268,0.673966 -1.2670314,1.315439 -1.9238281,1.953125 0.9934393,1.067461 2.039265,2.100232 3.0546871,3.152344 4.418036,4.542404 8.844896,9.081292 13.28125,13.617187 5.44033,-5.582425 10.883217,-11.161345 16.328125,-16.736328 -0.818935,-0.893039 -1.704139,-1.719409 -2.517578,-2.595703 a 5.0839908,5.162882 0 0 0 -0.832031,-0.800781 c -0.311909,-0.207911 -0.73686,-0.197265 -1.099609,-0.207032 h -0.94336 v 0.857422 c 0.360173,0.0044 0.719674,0.0078 1.080078,0.0078 0.467178,-0.01256 0.709791,0.31272 1.017578,0.601562 0.674663,0.70885 1.361804,1.417548 2.048829,2.115235 -5.001549,5.185204 -10.066381,10.320374 -15.076172,15.5 C 19.407587,29.32602 14.740419,24.513798 10.050781,19.710925 9.7100178,19.360686 9.3275448,19.015693 9.0527344,18.615221 9.4251024,18.131027 9.906145,17.71548 10.318359,17.267565 c 0.406719,-0.403263 0.774716,-0.860139 1.222657,-1.21875 0.193741,-0.157677 0.418538,-0.136714 0.65625,-0.15625 0.972269,-0.02635 1.944675,-0.03401 2.917968,-0.03516 V 15 C 14.371597,14.98992 13.62926,14.98047 12.884766,14.98047 Z"
         transform="matrix(10.955263,0,0,11.147895,-4.7314113,-15.458223)"
         style="opacity:1;fill:#00ffff;fill-opacity:1;stroke:#00ffff;stroke-width:1;stroke-miterlimit:4;stroke-dasharray:none;stroke-opacity:1"
         id="path14" />
      <rect
         y="99.840103"
         x="219.90202"
         height="100.85415"
         width="102.88555"
         id="rect993"
         style="fill:none;fill-opacity:1;stroke:#00ffff;stroke-width:18.78697014;stroke-miterlimit:4;stroke-dasharray:none;stroke-opacity:1" />
      <rect
         transform="matrix(0.55524729,-0.8316853,0.82257929,0.56865044,0,0)"
         y="347.22757"
         x="-79.677498"
         height="10.819735"
         width="70.781349"
         id="rect1007"
         style="fill:#1a1a1a;fill-opacity:1;stroke:#00ffff;stroke-width:13.26226139;stroke-miterlimit:4;stroke-dasharray:none;stroke-opacity:1" />
    </g>
    <g
       id="g4619"
       transform="matrix(0.55332411,0,0,0.55332411,-4.8533258,143.82613)"
       style="fill:#06ffff;fill-opacity:1">
      <g
         id="text840"
         style="font-style:normal;font-variant:normal;font-weight:bold;font-stretch:normal;font-size:29.8631649px;line-height:1.25;font-family:'Roboto Condensed';-inkscape-font-specification:'Roboto Condensed, Bold';text-align:center;letter-spacing:4.14766169px;text-anchor:middle;fill:#06ffff;fill-opacity:1;stroke:none;stroke-width:1.19452667;stroke-miterlimit:4;stroke-dasharray:none;stroke-opacity:1"
         transform="matrix(0.63790961,0,0,0.63790961,28.650218,196.85381)"
         aria-label="KYANiTE">
        <path
           id="path875"
           style="font-style:normal;font-variant:normal;font-weight:normal;font-stretch:normal;font-size:19.90877724px;line-height:37.3289566px;font-family:'Yu Gothic UI';-inkscape-font-specification:'Yu Gothic UI';letter-spacing:4.14766169px;fill:#06ffff;fill-opacity:1;stroke-width:1.19452667"
           d="m 21.058445,123.4393 h -2.274733 l -5.38548,-6.37703 q -0.301354,-0.35968 -0.369401,-0.48605 h -0.03889 v 6.86308 H 11.3568 v -13.94003 h 1.633141 v 6.55201 h 0.03889 q 0.136095,-0.21387 0.369401,-0.47634 l 5.2105,-6.07567 h 2.031706 l -5.978465,6.6881 z"
           inkscape:connector-curvature="0" />
        <path
           id="path877"
           style="font-style:normal;font-variant:normal;font-weight:normal;font-stretch:normal;font-size:19.90877724px;line-height:37.3289566px;font-family:'Yu Gothic UI';-inkscape-font-specification:'Yu Gothic UI';letter-spacing:4.14766169px;fill:#06ffff;fill-opacity:1;stroke-width:1.19452667"
           d="m 36.113162,109.49927 -4.598072,8.78786 v 5.15217 h -1.633142 v -5.11329 l -4.481419,-8.82674 h 1.856726 l 3.120468,6.29926 q 0.05833,0.11665 0.340238,0.85545 h 0.02916 q 0.09721,-0.33051 0.369401,-0.85545 l 3.266284,-6.29926 z"
           inkscape:connector-curvature="0" />
        <path
           id="path879"
           style="font-style:normal;font-variant:normal;font-weight:normal;font-stretch:normal;font-size:19.90877724px;line-height:37.3289566px;font-family:'Yu Gothic UI';-inkscape-font-specification:'Yu Gothic UI';letter-spacing:4.14766169px;fill:#06ffff;fill-opacity:1;stroke-width:1.19452667"
           d="m 52.217755,123.4393 h -1.808121 l -1.477605,-3.90787 h -5.910418 l -1.390115,3.90787 h -1.817842 l 5.346595,-13.94003 h 1.691469 z m -3.820385,-5.37576 -2.187244,-5.93958 q -0.106932,-0.29163 -0.213864,-0.93322 h -0.03888 q -0.09721,0.59298 -0.223585,0.93322 l -2.167801,5.93958 z"
           inkscape:connector-curvature="0" />
        <path
           id="path881"
           style="font-style:normal;font-variant:normal;font-weight:normal;font-stretch:normal;font-size:19.90877724px;line-height:37.3289566px;font-family:'Yu Gothic UI';-inkscape-font-specification:'Yu Gothic UI';letter-spacing:4.14766169px;fill:#06ffff;fill-opacity:1;stroke-width:1.19452667"
           d="M 69.644413,123.4393 H 67.64187 l -7.174159,-11.1112 q -0.27219,-0.418 -0.447169,-0.87489 h -0.05833 q 0.07777,0.44717 0.07777,1.91505 V 123.4393 H 58.40684 v -13.94003 h 2.119196 l 6.979737,10.93622 q 0.437449,0.68047 0.563823,0.93322 h 0.03888 q -0.09721,-0.60271 -0.09721,-2.05115 v -9.81829 h 1.633141 z"
           inkscape:connector-curvature="0" />
        <path
           id="path885"
           style="font-style:normal;font-variant:normal;font-weight:normal;font-stretch:normal;font-size:19.90877724px;line-height:37.3289566px;font-family:'Yu Gothic UI';-inkscape-font-specification:'Yu Gothic UI';letter-spacing:4.14766169px;fill:#06ffff;fill-opacity:1;stroke-width:1.19452667"
           d="M 94.659998,110.97687 H 90.63547 v 12.46243 h -1.633142 v -12.46243 h -4.014807 v -1.4776 h 9.672477 z"
           inkscape:connector-curvature="0" />
        <path
           id="path887"
           style="font-style:normal;font-variant:normal;font-weight:normal;font-stretch:normal;font-size:19.90877724px;line-height:37.3289566px;font-family:'Yu Gothic UI';-inkscape-font-specification:'Yu Gothic UI';letter-spacing:4.14766169px;fill:#06ffff;fill-opacity:1;stroke-width:1.19452667"
           d="m 108.37321,123.4393 h -7.38803 v -13.94003 h 7.07695 v 1.4776 h -5.4438 v 4.63696 h 5.03552 v 1.46788 h -5.03552 v 4.87999 h 5.75488 z"
           inkscape:connector-curvature="0" />
      </g>
      <g
         id="g4600"
         style="fill:#06ffff;fill-opacity:1">
        <path
           transform="matrix(0.63790961,0,0,0.63790961,28.650218,196.85381)"
           d="m 78.827599,123.4393 h -1.594258 v -9.95439 h 1.594258 z"
           style="font-style:normal;font-variant:normal;font-weight:normal;font-stretch:normal;font-size:19.90877724px;line-height:37.3289566px;font-family:'Yu Gothic UI';-inkscape-font-specification:'Yu Gothic UI';text-align:center;letter-spacing:4.14766169px;text-anchor:middle;fill:#06ffff;fill-opacity:1;stroke:none;stroke-width:1.19452667;stroke-miterlimit:4;stroke-dasharray:none;stroke-opacity:1"
           id="path883"
           inkscape:connector-curvature="0"
           sodipodi:nodetypes="ccccc" />
        <path
           sodipodi:type="star"
           style="fill:#06ffff;fill-opacity:1;stroke:none;stroke-width:0.76200002;stroke-miterlimit:4;stroke-dasharray:none;stroke-opacity:1"
           id="path892"
           sodipodi:sides="3"
           sodipodi:cx="78.041405"
           sodipodi:cy="256.36887"
           sodipodi:r1="5.9405499"
           sodipodi:r2="5.9405499"
           sodipodi:arg1="0.68964667"
           sodipodi:arg2="1.7368442"
           inkscape:flatsided="true"
           inkscape:rounded="0"
           inkscape:randomized="0"
           d="m 82.624366,260.14863 -10.147812,-1.70068 6.54674,-7.93793 z"
           transform="matrix(0.27038686,-0.04573251,0.04573251,0.27038686,45.570253,201.33356)" />
      </g>
    </g>
  </g>
</svg>
